<svg width="41" height="40" viewBox="0 0 41 40" fill="none" xmlns="http://www.w3.org/2000/svg">
<path d="M22.3493 27.7886L34.6082 15.2806C34.8116 15.0752 34.973 14.8308 35.0831 14.5615C35.1933 14.2922 35.25 14.0034 35.25 13.7116C35.25 13.4199 35.1933 13.1311 35.0831 12.8618C34.973 12.5925 34.8116 12.3481 34.6082 12.1426C34.2017 11.731 33.6518 11.5 33.0786 11.5C32.5053 11.5 31.9554 11.731 31.5489 12.1426L20.7003 23.0815L9.96021 12.1426C9.55369 11.731 9.00377 11.5 8.43056 11.5C7.85735 11.5 7.30744 11.731 6.90091 12.1426C6.6959 12.3473 6.5328 12.5914 6.42107 12.8607C6.30933 13.13 6.25119 13.4192 6.25 13.7116C6.25119 14.004 6.30933 14.2932 6.42107 14.5626C6.5328 14.8319 6.6959 15.076 6.90091 15.2806L19.1598 27.7886C19.363 28.0129 19.6096 28.1919 19.8841 28.3143C20.1585 28.4368 20.4549 28.5 20.7546 28.5C21.0542 28.5 21.3506 28.4368 21.6251 28.3143C21.8995 28.1919 22.1461 28.0129 22.3493 27.7886V27.7886Z" fill="#2CB67D"/>
</svg>
