<svg width="41" height="40" viewBox="0 0 41 40" fill="none" xmlns="http://www.w3.org/2000/svg">
<path d="M22.3493 12.2114L34.6082 24.7194C34.8116 24.9248 34.973 25.1692 35.0831 25.4385C35.1933 25.7078 35.25 25.9966 35.25 26.2884C35.25 26.5801 35.1933 26.8689 35.0831 27.1382C34.973 27.4075 34.8116 27.6519 34.6082 27.8574C34.2017 28.269 33.6518 28.5 33.0786 28.5C32.5053 28.5 31.9554 28.269 31.5489 27.8574L20.7003 16.9185L9.96021 27.8574C9.55369 28.269 9.00377 28.5 8.43056 28.5C7.85735 28.5 7.30744 28.269 6.90091 27.8574C6.6959 27.6527 6.5328 27.4086 6.42107 27.1393C6.30933 26.87 6.25119 26.5808 6.25 26.2884C6.25119 25.996 6.30933 25.7068 6.42107 25.4374C6.5328 25.1681 6.6959 24.924 6.90091 24.7194L19.1598 12.2114C19.363 11.9871 19.6096 11.8081 19.8841 11.6857C20.1585 11.5632 20.4549 11.5 20.7546 11.5C21.0542 11.5 21.3506 11.5632 21.6251 11.6857C21.8995 11.8081 22.1461 11.9871 22.3493 12.2114V12.2114Z" fill="#2CB67D"/>
</svg>
