<svg width="45" height="45" viewBox="0 0 45 45" fill="none" xmlns="http://www.w3.org/2000/svg">
<path d="M21.1688 28.6687C21.0881 28.7578 21.013 28.8518 20.9438 28.95C20.8728 29.0545 20.816 29.168 20.775 29.2875C20.7209 29.3938 20.683 29.5075 20.6625 29.625C20.6533 29.7498 20.6533 29.8752 20.6625 30C20.6562 30.246 20.7075 30.49 20.8125 30.7125C20.8967 30.9452 21.0311 31.1565 21.206 31.3315C21.381 31.5064 21.5923 31.6408 21.825 31.725C22.0494 31.8242 22.2921 31.8754 22.5375 31.8754C22.7829 31.8754 23.0256 31.8242 23.25 31.725C23.4827 31.6408 23.694 31.5064 23.869 31.3315C24.0439 31.1565 24.1783 30.9452 24.2625 30.7125C24.3458 30.4845 24.384 30.2425 24.375 30C24.3764 29.7532 24.3291 29.5086 24.2358 29.2802C24.1425 29.0517 24.005 28.844 23.8313 28.6687C23.657 28.493 23.4496 28.3535 23.2211 28.2583C22.9926 28.1631 22.7475 28.1141 22.5 28.1141C22.2525 28.1141 22.0074 28.1631 21.7789 28.2583C21.5504 28.3535 21.3431 28.493 21.1688 28.6687ZM22.5 3.75C18.7916 3.75 15.1665 4.84967 12.0831 6.90994C8.99964 8.97022 6.59641 11.8986 5.17727 15.3247C3.75812 18.7508 3.38681 22.5208 4.11028 26.1579C4.83376 29.7951 6.61952 33.136 9.24176 35.7583C11.864 38.3805 15.2049 40.1663 18.8421 40.8897C22.4792 41.6132 26.2492 41.2419 29.6753 39.8227C33.1014 38.4036 36.0298 36.0004 38.0901 32.9169C40.1503 29.8335 41.25 26.2084 41.25 22.5C41.25 20.0377 40.765 17.5995 39.8228 15.3247C38.8805 13.0498 37.4994 10.9828 35.7583 9.24175C34.0172 7.50065 31.9502 6.11953 29.6753 5.17726C27.4005 4.23498 24.9623 3.75 22.5 3.75V3.75ZM22.5 37.5C19.5333 37.5 16.6332 36.6203 14.1665 34.972C11.6997 33.3238 9.77713 30.9811 8.64182 28.2403C7.5065 25.4994 7.20945 22.4834 7.78823 19.5736C8.36701 16.6639 9.79562 13.9912 11.8934 11.8934C13.9912 9.79561 16.6639 8.367 19.5737 7.78822C22.4834 7.20944 25.4994 7.50649 28.2403 8.64181C30.9812 9.77712 33.3238 11.6997 34.9721 14.1664C36.6203 16.6332 37.5 19.5333 37.5 22.5C37.5 26.4782 35.9197 30.2936 33.1066 33.1066C30.2936 35.9196 26.4783 37.5 22.5 37.5V37.5ZM22.5 13.125C21.512 13.1244 20.5413 13.384 19.6855 13.8777C18.8297 14.3714 18.119 15.0819 17.625 15.9375C17.4893 16.1509 17.3983 16.3896 17.3572 16.6391C17.3162 16.8886 17.326 17.1439 17.3862 17.3895C17.4463 17.6351 17.5556 17.866 17.7073 18.0683C17.859 18.2706 18.0501 18.4402 18.269 18.5667C18.488 18.6933 18.7302 18.7742 18.9813 18.8047C19.2323 18.8352 19.4869 18.8146 19.7298 18.7441C19.9726 18.6737 20.1987 18.5548 20.3945 18.3947C20.5902 18.2346 20.7515 18.0366 20.8688 17.8125C21.034 17.5264 21.2718 17.289 21.5583 17.1243C21.8447 16.9597 22.1696 16.8737 22.5 16.875C22.9973 16.875 23.4742 17.0725 23.8258 17.4242C24.1775 17.7758 24.375 18.2527 24.375 18.75C24.375 19.2473 24.1775 19.7242 23.8258 20.0758C23.4742 20.4275 22.9973 20.625 22.5 20.625C22.0027 20.625 21.5258 20.8225 21.1742 21.1742C20.8226 21.5258 20.625 22.0027 20.625 22.5V24.375C20.625 24.8723 20.8226 25.3492 21.1742 25.7008C21.5258 26.0525 22.0027 26.25 22.5 26.25C22.9973 26.25 23.4742 26.0525 23.8258 25.7008C24.1775 25.3492 24.375 24.8723 24.375 24.375V24.0375C25.6151 23.5875 26.6576 22.716 27.3202 21.5754C27.9829 20.4347 28.2235 19.0974 28.0001 17.7973C27.7767 16.4972 27.1035 15.3169 26.0981 14.4628C25.0927 13.6088 23.8191 13.1352 22.5 13.125V13.125Z" fill="#94A1B2"/>
</svg>
