<svg width="45" height="45" viewBox="0 0 45 45" fill="none" xmlns="http://www.w3.org/2000/svg">
<path d="M37.5001 15.3375V5.625C37.5001 5.12772 37.3025 4.65081 36.9509 4.29917C36.5993 3.94754 36.1224 3.75 35.6251 3.75C35.1278 3.75 34.6509 3.94754 34.2993 4.29917C33.9476 4.65081 33.7501 5.12772 33.7501 5.625V15.3375C32.6642 15.7316 31.7259 16.4506 31.0629 17.3966C30.3999 18.3426 30.0442 19.4698 30.0442 20.625C30.0442 21.7802 30.3999 22.9074 31.0629 23.8534C31.7259 24.7994 32.6642 25.5184 33.7501 25.9125V39.375C33.7501 39.8723 33.9476 40.3492 34.2993 40.7008C34.6509 41.0525 35.1278 41.25 35.6251 41.25C36.1224 41.25 36.5993 41.0525 36.9509 40.7008C37.3025 40.3492 37.5001 39.8723 37.5001 39.375V25.9125C38.586 25.5184 39.5242 24.7994 40.1873 23.8534C40.8503 22.9074 41.206 21.7802 41.206 20.625C41.206 19.4698 40.8503 18.3426 40.1873 17.3966C39.5242 16.4506 38.586 15.7316 37.5001 15.3375V15.3375ZM35.6251 22.5C35.2542 22.5 34.8917 22.39 34.5834 22.184C34.275 21.978 34.0347 21.6851 33.8928 21.3425C33.7509 20.9999 33.7138 20.6229 33.7861 20.2592C33.8585 19.8955 34.037 19.5614 34.2993 19.2992C34.5615 19.037 34.8956 18.8584 35.2593 18.786C35.623 18.7137 36 18.7508 36.3426 18.8927C36.6852 19.0346 36.9781 19.275 37.1841 19.5833C37.3901 19.8916 37.5001 20.2542 37.5001 20.625C37.5001 21.1223 37.3025 21.5992 36.9509 21.9508C36.5993 22.3025 36.1224 22.5 35.6251 22.5ZM24.3751 26.5875V5.625C24.3751 5.12772 24.1775 4.65081 23.8259 4.29917C23.4743 3.94754 22.9974 3.75 22.5001 3.75C22.0028 3.75 21.5259 3.94754 21.1743 4.29917C20.8226 4.65081 20.6251 5.12772 20.6251 5.625V26.5875C19.5392 26.9816 18.6009 27.7006 17.9379 28.6466C17.2749 29.5926 16.9192 30.7198 16.9192 31.875C16.9192 33.0302 17.2749 34.1574 17.9379 35.1034C18.6009 36.0494 19.5392 36.7684 20.6251 37.1625V39.375C20.6251 39.8723 20.8226 40.3492 21.1743 40.7008C21.5259 41.0525 22.0028 41.25 22.5001 41.25C22.9974 41.25 23.4743 41.0525 23.8259 40.7008C24.1775 40.3492 24.3751 39.8723 24.3751 39.375V37.1625C25.461 36.7684 26.3992 36.0494 27.0623 35.1034C27.7253 34.1574 28.081 33.0302 28.081 31.875C28.081 30.7198 27.7253 29.5926 27.0623 28.6466C26.3992 27.7006 25.461 26.9816 24.3751 26.5875ZM22.5001 33.75C22.1292 33.75 21.7667 33.64 21.4584 33.434C21.15 33.228 20.9097 32.9351 20.7678 32.5925C20.6259 32.2499 20.5888 31.8729 20.6611 31.5092C20.7335 31.1455 20.912 30.8114 21.1743 30.5492C21.4365 30.2869 21.7706 30.1084 22.1343 30.036C22.498 29.9637 22.875 30.0008 23.2176 30.1427C23.5602 30.2846 23.8531 30.525 24.0591 30.8333C24.2651 31.1416 24.3751 31.5042 24.3751 31.875C24.3751 32.3723 24.1775 32.8492 23.8259 33.2008C23.4743 33.5525 22.9974 33.75 22.5001 33.75ZM11.2501 11.5875V5.625C11.2501 5.12772 11.0525 4.65081 10.7009 4.29917C10.3493 3.94754 9.87236 3.75 9.37508 3.75C8.8778 3.75 8.40089 3.94754 8.04926 4.29917C7.69763 4.65081 7.50008 5.12772 7.50008 5.625V11.5875C6.41417 11.9816 5.47595 12.7006 4.81291 13.6466C4.14988 14.5926 3.79419 15.7198 3.79419 16.875C3.79419 18.0302 4.14988 19.1574 4.81291 20.1034C5.47595 21.0494 6.41417 21.7684 7.50008 22.1625V39.375C7.50008 39.8723 7.69763 40.3492 8.04926 40.7008C8.40089 41.0525 8.8778 41.25 9.37508 41.25C9.87236 41.25 10.3493 41.0525 10.7009 40.7008C11.0525 40.3492 11.2501 39.8723 11.2501 39.375V22.1625C12.336 21.7684 13.2742 21.0494 13.9373 20.1034C14.6003 19.1574 14.956 18.0302 14.956 16.875C14.956 15.7198 14.6003 14.5926 13.9373 13.6466C13.2742 12.7006 12.336 11.9816 11.2501 11.5875V11.5875ZM9.37508 18.75C9.00424 18.75 8.64173 18.64 8.33339 18.434C8.02505 18.228 7.78472 17.9351 7.64281 17.5925C7.50089 17.2499 7.46376 16.8729 7.53611 16.5092C7.60846 16.1455 7.78704 15.8114 8.04926 15.5492C8.31148 15.287 8.64557 15.1084 9.00929 15.036C9.373 14.9637 9.75 15.0008 10.0926 15.1427C10.4352 15.2846 10.7281 15.525 10.9341 15.8333C11.1401 16.1416 11.2501 16.5042 11.2501 16.875C11.2501 17.3723 11.0525 17.8492 10.7009 18.2008C10.3493 18.5525 9.87236 18.75 9.37508 18.75Z" fill="#94A1B2"/>
</svg>
