<svg width="45" height="45" viewBox="0 0 45 45" fill="none" xmlns="http://www.w3.org/2000/svg">
<path d="M41.25 13.575C41.2515 13.3283 41.2042 13.0837 41.1109 12.8552C41.0175 12.6268 40.8801 12.419 40.7063 12.2438L32.7563 4.29378C32.5811 4.12 32.3733 3.98252 32.1449 3.88921C31.9164 3.7959 31.6718 3.7486 31.425 3.75003C31.1783 3.7486 30.9337 3.7959 30.7052 3.88921C30.4768 3.98252 30.269 4.12 30.0938 4.29378L24.7875 9.60003L4.29378 30.0938C4.12 30.269 3.98252 30.4768 3.88921 30.7052C3.7959 30.9337 3.7486 31.1783 3.75003 31.425V39.375C3.75003 39.8723 3.94758 40.3492 4.29921 40.7009C4.65084 41.0525 5.12775 41.25 5.62503 41.25H13.575C13.8374 41.2643 14.0998 41.2233 14.3453 41.1296C14.5908 41.0359 14.8139 40.8917 15 40.7063L35.3813 20.2125L40.7063 15C40.8774 14.8183 41.0169 14.6092 41.1188 14.3813C41.1368 14.2318 41.1368 14.0807 41.1188 13.9313C41.1276 13.844 41.1276 13.7561 41.1188 13.6688L41.25 13.575ZM12.8063 37.5H7.50003V32.1938L26.1188 13.575L31.425 18.8813L12.8063 37.5ZM34.0688 16.2375L28.7625 10.9313L31.425 8.28753L36.7125 13.575L34.0688 16.2375Z" fill="#94A1B2"/>
</svg>
