<svg width="45" height="45" viewBox="0 0 45 45" fill="none" xmlns="http://www.w3.org/2000/svg">
<path d="M37.3124 23.7376C37.0118 23.3954 36.8461 22.9556 36.8461 22.5001C36.8461 22.0447 37.0118 21.6048 37.3124 21.2626L39.7124 18.5626C39.9769 18.2676 40.1411 17.8964 40.1815 17.5023C40.222 17.1082 40.1365 16.7114 39.9374 16.3689L36.1874 9.88136C35.9904 9.53921 35.6903 9.268 35.3301 9.10639C34.9698 8.94479 34.5678 8.90103 34.1812 8.98136L30.6562 9.69386C30.2076 9.78654 29.7407 9.71184 29.3435 9.48386C28.9462 9.25588 28.6462 8.89039 28.4999 8.45636L27.3562 5.02511C27.2304 4.65269 26.9907 4.32923 26.6711 4.10044C26.3515 3.87164 25.968 3.74909 25.5749 3.75011H18.0749C17.6661 3.72877 17.2614 3.84185 16.9229 4.07207C16.5843 4.3023 16.3304 4.63702 16.1999 5.02511L15.1499 8.45636C15.0037 8.89039 14.7036 9.25588 14.3064 9.48386C13.9092 9.71184 13.4422 9.78654 12.9937 9.69386L9.37493 8.98136C9.00846 8.92957 8.63486 8.9874 8.3012 9.14756C7.96754 9.30771 7.68874 9.56304 7.49993 9.88136L3.74993 16.3689C3.54585 16.7076 3.45409 17.1021 3.48777 17.4962C3.52145 17.8902 3.67883 18.2634 3.93743 18.5626L6.31868 21.2626C6.61928 21.6048 6.78505 22.0447 6.78505 22.5001C6.78505 22.9556 6.61928 23.3954 6.31868 23.7376L3.93743 26.4376C3.67883 26.7368 3.52145 27.1101 3.48777 27.5041C3.45409 27.8981 3.54585 28.2926 3.74993 28.6314L7.49993 35.1189C7.69699 35.461 7.99703 35.7322 8.35728 35.8938C8.71753 36.0554 9.1196 36.0992 9.50618 36.0189L13.0312 35.3064C13.4797 35.2137 13.9467 35.2884 14.3439 35.5164C14.7411 35.7443 15.0412 36.1098 15.1874 36.5439L16.3312 39.9751C16.4616 40.3632 16.7155 40.6979 17.0541 40.9281C17.3927 41.1584 17.7973 41.2714 18.2062 41.2501H25.7062C26.0993 41.2511 26.4827 41.1286 26.8024 40.8998C27.122 40.671 27.3616 40.3475 27.4874 39.9751L28.6312 36.5439C28.7774 36.1098 29.0775 35.7443 29.4747 35.5164C29.872 35.2884 30.3389 35.2137 30.7874 35.3064L34.3124 36.0189C34.699 36.0992 35.1011 36.0554 35.4613 35.8938C35.8216 35.7322 36.1216 35.461 36.3187 35.1189L40.0687 28.6314C40.2678 28.2888 40.3532 27.892 40.3128 27.4979C40.2724 27.1038 40.1081 26.7326 39.8437 26.4376L37.3124 23.7376ZM34.5187 26.2501L36.0187 27.9376L33.6187 32.1001L31.4062 31.6501C30.0558 31.3741 28.651 31.6035 27.4585 32.2947C26.2661 32.986 25.3689 34.0911 24.9374 35.4001L24.2249 37.5001H19.4249L18.7499 35.3626C18.3184 34.0536 17.4213 32.9485 16.2288 32.2572C15.0364 31.566 13.6316 31.3366 12.2812 31.6126L10.0687 32.0626L7.63118 27.9189L9.13118 26.2314C10.0536 25.2001 10.5636 23.865 10.5636 22.4814C10.5636 21.0977 10.0536 19.7626 9.13118 18.7314L7.63118 17.0439L10.0312 12.9189L12.2437 13.3689C13.5941 13.6449 14.9989 13.4155 16.1913 12.7242C17.3838 12.033 18.2809 10.9279 18.7124 9.61886L19.4249 7.50011H24.2249L24.9374 9.63761C25.3689 10.9467 26.2661 12.0517 27.4585 12.743C28.651 13.4343 30.0558 13.6636 31.4062 13.3876L33.6187 12.9376L36.0187 17.1001L34.5187 18.7876C33.6066 19.8165 33.103 21.1439 33.103 22.5189C33.103 23.8938 33.6066 25.2212 34.5187 26.2501V26.2501ZM21.8249 15.0001C20.3416 15.0001 18.8915 15.44 17.6582 16.2641C16.4248 17.0882 15.4635 18.2595 14.8958 19.63C14.3282 21.0004 14.1796 22.5084 14.469 23.9633C14.7584 25.4181 15.4727 26.7545 16.5216 27.8034C17.5705 28.8523 18.9069 29.5666 20.3618 29.856C21.8166 30.1454 23.3246 29.9969 24.6951 29.4292C26.0655 28.8615 27.2368 27.9003 28.0609 26.6669C28.8851 25.4335 29.3249 23.9835 29.3249 22.5001C29.3249 20.511 28.5348 18.6033 27.1282 17.1968C25.7217 15.7903 23.8141 15.0001 21.8249 15.0001V15.0001ZM21.8249 26.2501C21.0832 26.2501 20.3582 26.0302 19.7415 25.6181C19.1249 25.2061 18.6442 24.6204 18.3604 23.9352C18.0766 23.2499 18.0023 22.4959 18.147 21.7685C18.2917 21.0411 18.6488 20.3729 19.1733 19.8485C19.6977 19.324 20.3659 18.9669 21.0933 18.8222C21.8208 18.6775 22.5748 18.7517 23.26 19.0356C23.9452 19.3194 24.5309 19.8 24.9429 20.4167C25.355 21.0334 25.5749 21.7584 25.5749 22.5001C25.5749 23.4947 25.1798 24.4485 24.4766 25.1518C23.7733 25.855 22.8195 26.2501 21.8249 26.2501Z" fill="#94A1B2"/>
</svg>
