<svg width="45" height="45" viewBox="0 0 45 45" fill="none" xmlns="http://www.w3.org/2000/svg">
<path d="M35.7562 9.24368C34.0266 7.45287 31.9576 6.02445 29.67 5.04178C27.3824 4.05912 24.9221 3.54187 22.4325 3.52024C19.9428 3.49861 17.4739 3.97301 15.1695 4.91578C12.8652 5.85855 10.7718 7.25079 9.01128 9.01128C7.25079 10.7718 5.85855 12.8652 4.91578 15.1695C3.97301 17.4739 3.49861 19.9428 3.52024 22.4325C3.54187 24.9221 4.05912 27.3824 5.04178 29.67C6.02445 31.9576 7.45287 34.0266 9.24368 35.7562C10.9733 37.547 13.0423 38.9754 15.3299 39.9581C17.6174 40.9408 20.0778 41.458 22.5674 41.4796C25.057 41.5013 27.526 41.0269 29.8303 40.0841C32.1346 39.1413 34.2281 37.7491 35.9886 35.9886C37.7491 34.2281 39.1413 32.1346 40.0841 29.8303C41.0269 27.526 41.5013 25.057 41.4796 22.5674C41.458 20.0778 40.9408 17.6174 39.9581 15.3299C38.9754 13.0423 37.547 10.9733 35.7562 9.24368V9.24368ZM34.1812 13.1249H23.9249L28.3312 8.71869C30.6099 9.69088 32.6177 11.2032 34.1812 13.1249V13.1249ZM16.8749 8.62494C19.1758 7.70402 21.6661 7.35653 24.1312 7.61244L16.8749 14.8687V8.62494ZM13.1249 10.8187V21.0749L9.73119 17.6812L8.71869 16.6687C9.69088 14.39 11.2032 12.3822 13.1249 10.8187V10.8187ZM8.62494 28.1249C7.70182 25.8247 7.35425 23.3338 7.61244 20.8687L14.8687 28.1249H8.62494ZM10.8187 31.8749H21.0749L16.6687 36.2812C14.39 35.309 12.3822 33.7967 10.8187 31.8749V31.8749ZM28.1249 36.3749C25.8245 37.2973 23.3338 37.6449 20.8687 37.3874L28.1249 30.1312V36.3749ZM28.1249 24.8249L24.8249 28.1249H20.1562L16.8749 24.8249V20.1749L20.1749 16.8749H24.8249L28.1249 20.1749V24.8249ZM31.8749 34.1999V23.9249L36.2812 28.3312C35.309 30.6099 33.7967 32.6177 31.8749 34.1812V34.1999ZM30.1312 16.8749H36.3749C37.2973 19.1754 37.6449 21.6661 37.3874 24.1312L30.1312 16.8749Z" fill="#94A1B2"/>
</svg>
