<svg width="64" height="64" viewBox="0 0 64 64" fill="none" xmlns="http://www.w3.org/2000/svg">
<rect width="64" height="64" rx="20" fill="#94A1B2"/>
<path d="M47 32C47 31.4917 46.7981 31.0042 46.4387 30.6447C46.0792 30.2853 45.5917 30.0833 45.0834 30.0833H30.5359L34.9442 25.6942C35.1229 25.5155 35.2647 25.3033 35.3614 25.0698C35.4581 24.8363 35.5079 24.5861 35.5079 24.3333C35.5079 24.0806 35.4581 23.8304 35.3614 23.5969C35.2647 23.3634 35.1229 23.1512 34.9442 22.9725C34.7655 22.7938 34.5533 22.652 34.3199 22.5553C34.0864 22.4586 33.8361 22.4088 33.5834 22.4088C33.3306 22.4088 33.0804 22.4586 32.8469 22.5553C32.6134 22.652 32.4012 22.7938 32.2225 22.9725L24.5559 30.6392C24.3814 30.8215 24.2446 31.0364 24.1534 31.2717C23.9617 31.7383 23.9617 32.2617 24.1534 32.7283C24.2446 32.9636 24.3814 33.1786 24.5559 33.3608L32.2225 41.0275C32.4007 41.2072 32.6127 41.3497 32.8463 41.4471C33.0798 41.5444 33.3304 41.5945 33.5834 41.5945C33.8364 41.5945 34.0869 41.5444 34.3205 41.4471C34.554 41.3497 34.766 41.2072 34.9442 41.0275C35.1239 40.8493 35.2664 40.6373 35.3637 40.4038C35.4611 40.1702 35.5112 39.9197 35.5112 39.6667C35.5112 39.4137 35.4611 39.1631 35.3637 38.9296C35.2664 38.696 35.1239 38.484 34.9442 38.3058L30.5359 33.9167H45.0834C45.5917 33.9167 46.0792 33.7147 46.4387 33.3553C46.7981 32.9959 47 32.5083 47 32ZM41.25 12.8333H22.0834C20.5584 12.8333 19.0958 13.4391 18.0175 14.5175C16.9392 15.5958 16.3334 17.0583 16.3334 18.5833V45.4167C16.3334 46.9417 16.9392 48.4042 18.0175 49.4825C19.0958 50.5609 20.5584 51.1667 22.0834 51.1667H41.25C42.775 51.1667 44.2376 50.5609 45.3159 49.4825C46.3942 48.4042 47 46.9417 47 45.4167V39.6667C47 39.1583 46.7981 38.6708 46.4387 38.3114C46.0792 37.9519 45.5917 37.75 45.0834 37.75C44.575 37.75 44.0875 37.9519 43.7281 38.3114C43.3686 38.6708 43.1667 39.1583 43.1667 39.6667V45.4167C43.1667 45.925 42.9648 46.4125 42.6053 46.772C42.2459 47.1314 41.7584 47.3333 41.25 47.3333H22.0834C21.575 47.3333 21.0875 47.1314 20.7281 46.772C20.3686 46.4125 20.1667 45.925 20.1667 45.4167V18.5833C20.1667 18.075 20.3686 17.5875 20.7281 17.2281C21.0875 16.8686 21.575 16.6667 22.0834 16.6667H41.25C41.7584 16.6667 42.2459 16.8686 42.6053 17.2281C42.9648 17.5875 43.1667 18.075 43.1667 18.5833V24.3333C43.1667 24.8417 43.3686 25.3292 43.7281 25.6886C44.0875 26.0481 44.575 26.25 45.0834 26.25C45.5917 26.25 46.0792 26.0481 46.4387 25.6886C46.7981 25.3292 47 24.8417 47 24.3333V18.5833C47 17.0583 46.3942 15.5958 45.3159 14.5175C44.2376 13.4391 42.775 12.8333 41.25 12.8333Z" fill="#16161A"/>
</svg>
